<svg width="140" height="39" viewBox="0 0 140 39" fill="none" xmlns="http://www.w3.org/2000/svg">
<rect width="140" height="39" rx="4" fill="#090909"/>
<path d="M29.8754 19.8084C29.903 17.9491 31.0546 16.1898 32.8814 15.216C31.729 13.7889 29.7986 12.884 27.7903 12.8295C25.6483 12.6346 23.5717 13.9409 22.4801 13.9409C21.3675 13.9409 19.6869 12.8489 17.8771 12.8812C15.5182 12.9472 13.3192 14.1101 12.1715 15.8983C9.70449 19.6018 11.5447 25.0447 13.9078 28.0383C15.0902 29.5042 16.472 31.1416 18.2801 31.0836C20.0494 31.0199 20.7103 30.1053 22.846 30.1053C24.9619 30.1053 25.5819 31.0836 27.4267 31.0467C29.3252 31.0199 30.5214 29.5743 31.6623 28.0945C32.5118 27.05 33.1655 25.8956 33.5992 24.674C31.368 23.8558 29.878 21.9089 29.8754 19.8084Z" fill="white"/>
<path d="M26.3909 10.8608C27.4261 9.78326 27.9361 8.39829 27.8126 7C26.2311 7.14403 24.7702 7.79942 23.721 8.8356C22.6951 9.84799 22.1612 11.2086 22.2621 12.5534C23.8442 12.5676 25.3995 11.9299 26.3909 10.8608Z" fill="white"/>
<path d="M96.4449 17.3016V19.6329H94.8162V21.1618H96.4449V26.3565C96.4449 28.1303 97.3393 28.8399 99.5893 28.8399C99.9847 28.8399 100.361 28.7976 100.691 28.747V27.235C100.408 27.2603 100.23 27.2772 99.9188 27.2772C98.9115 27.2772 98.469 26.8549 98.469 25.892V21.1618H100.691V19.6329H98.469V17.3016H96.4449Z" fill="white"/>
<path d="M106.423 28.9666C109.417 28.9666 111.252 27.1674 111.252 24.1857C111.252 21.2209 109.407 19.4133 106.423 19.4133C103.429 19.4133 101.584 21.2209 101.584 24.1857C101.584 27.1674 103.42 28.9666 106.423 28.9666ZM106.423 27.3532C104.662 27.3532 103.674 26.196 103.674 24.1857C103.674 22.1923 104.662 21.0266 106.423 21.0266C108.174 21.0266 109.172 22.1923 109.172 24.1857C109.172 26.1876 108.174 27.3532 106.423 27.3532Z" fill="white"/>
<path d="M112.823 28.7892H114.847V23.3579C114.847 22.0656 115.93 21.1956 117.464 21.1956C117.822 21.1956 118.425 21.2547 118.594 21.3054V19.5147C118.378 19.464 117.992 19.4387 117.69 19.4387C116.354 19.4387 115.214 20.0975 114.923 21.0013H114.772V19.5907H112.823V28.7892Z" fill="white"/>
<path d="M123.62 20.9591C125.117 20.9591 126.096 21.8967 126.143 23.341H120.965C121.078 21.9051 122.123 20.9591 123.62 20.9591ZM126.134 26.3059C125.757 27.0238 124.919 27.4208 123.695 27.4208C122.076 27.4208 121.031 26.3988 120.965 24.7854V24.6841H128.205V24.0506C128.205 21.1618 126.482 19.4133 123.629 19.4133C120.739 19.4133 118.903 21.28 118.903 24.2195C118.903 27.159 120.701 28.9666 123.639 28.9666C125.983 28.9666 127.621 27.953 128.082 26.3059H126.134Z" fill="white"/>
<path d="M83.1711 25.3923C83.3272 27.6511 85.4251 29.0956 88.5476 29.0956C91.8848 29.0956 93.973 27.581 93.973 25.1647C93.973 23.2649 92.7825 22.2143 89.8942 21.6103L88.3427 21.2688C86.5083 20.8836 85.7667 20.3671 85.7667 19.4653C85.7667 18.3272 86.9181 17.5831 88.6452 17.5831C90.2845 17.5831 91.4164 18.3097 91.6214 19.4741H93.7486C93.6217 17.3467 91.5335 15.8496 88.6745 15.8496C85.6008 15.8496 83.5516 17.3467 83.5516 19.5967C83.5516 21.4527 84.7128 22.5558 87.2596 23.0898L89.0746 23.4838C90.9383 23.8778 91.758 24.4556 91.758 25.4186C91.758 26.5392 90.4699 27.3534 88.7135 27.3534C86.8303 27.3534 85.5227 26.5917 85.3373 25.3923H83.1711Z" fill="white"/>
<path d="M62.2034 19.4387C60.81 19.4387 59.605 20.0637 58.9836 21.1111H58.833V19.5907H56.8842V31.8469H58.9083V27.3955H59.0683C59.605 28.3669 60.763 28.9412 62.2222 28.9412C64.8112 28.9412 66.4587 27.1083 66.4587 24.1857C66.4587 21.2632 64.8112 19.4387 62.2034 19.4387ZM61.6291 27.311C59.9345 27.311 58.8706 26.1116 58.8706 24.1942C58.8706 22.2683 59.9345 21.0689 61.6385 21.0689C63.3519 21.0689 64.3781 22.243 64.3781 24.1857C64.3781 26.1369 63.3519 27.311 61.6291 27.311Z" fill="white"/>
<path d="M73.5414 19.4387C72.1481 19.4387 70.943 20.0637 70.3217 21.1111H70.171V19.5907H68.2222V31.8469H70.2463V27.3955H70.4064C70.943 28.3669 72.101 28.9412 73.5602 28.9412C76.1492 28.9412 77.7967 27.1083 77.7967 24.1857C77.7967 21.2632 76.1492 19.4387 73.5414 19.4387ZM72.9671 27.311C71.2725 27.311 70.2087 26.1116 70.2087 24.1942C70.2087 22.2683 71.2725 21.0689 72.9765 21.0689C74.69 21.0689 75.7161 22.243 75.7161 24.1857C75.7161 26.1369 74.69 27.311 72.9671 27.311Z" fill="white"/>
<path d="M53.2526 28.7892H55.575L50.4911 16.156H48.1395L43.0557 28.7892H45.3L46.5978 25.4361H51.9646L53.2526 28.7892ZM49.2031 18.4498H49.369L51.4084 23.7902H47.1539L49.2031 18.4498Z" fill="white"/>
<path d="M43 7.2457V12.2393H45.0095C46.668 12.2393 47.6284 11.3222 47.6284 9.72691C47.6284 8.15582 46.6603 7.2457 45.0095 7.2457H43ZM43.864 7.95165H44.9131C46.0663 7.95165 46.749 8.60915 46.749 9.73729C46.749 10.8827 46.0779 11.5333 44.9131 11.5333H43.864V7.95165Z" fill="white"/>
<path d="M50.5698 12.3119C51.7963 12.3119 52.5484 11.5748 52.5484 10.3533C52.5484 9.13862 51.7925 8.39806 50.5698 8.39806C49.3432 8.39806 48.5873 9.13862 48.5873 10.3533C48.5873 11.5748 49.3394 12.3119 50.5698 12.3119ZM50.5698 11.651C49.8485 11.651 49.4435 11.1769 49.4435 10.3533C49.4435 9.53658 49.8485 9.05902 50.5698 9.05902C51.2872 9.05902 51.696 9.53658 51.696 10.3533C51.696 11.1734 51.2872 11.651 50.5698 11.651Z" fill="white"/>
<path d="M58.9534 8.47073H58.1241L57.3759 11.3464H57.3103L56.4463 8.47073H55.6518L54.7878 11.3464H54.7261L53.974 8.47073H53.1332L54.2903 12.2393H55.1427L56.0066 9.46391H56.0722L56.94 12.2393H57.8001L58.9534 8.47073Z" fill="white"/>
<path d="M59.9084 12.2393H60.7376V10.0349C60.7376 9.44661 61.1272 9.07979 61.7405 9.07979C62.3537 9.07979 62.6469 9.38086 62.6469 9.98645V12.2393H63.4761V9.79958C63.4761 8.9033 62.9593 8.39806 62.022 8.39806C61.3895 8.39806 60.9729 8.65068 60.7685 9.06941H60.7068V8.47073H59.9084V12.2393Z" fill="white"/>
<path d="M64.7821 12.2393H65.6114V7H64.7821V12.2393Z" fill="white"/>
<path d="M68.7302 12.3119C69.9567 12.3119 70.7088 11.5748 70.7088 10.3533C70.7088 9.13862 69.9528 8.39806 68.7302 8.39806C67.5036 8.39806 66.7477 9.13862 66.7477 10.3533C66.7477 11.5748 67.4998 12.3119 68.7302 12.3119ZM68.7302 11.651C68.0089 11.651 67.6039 11.1769 67.6039 10.3533C67.6039 9.53658 68.0089 9.05902 68.7302 9.05902C69.4476 9.05902 69.8564 9.53658 69.8564 10.3533C69.8564 11.1734 69.4476 11.651 68.7302 11.651Z" fill="white"/>
<path d="M73.1796 11.6752C72.7283 11.6752 72.4005 11.4779 72.4005 11.1388C72.4005 10.8066 72.6628 10.6301 73.2413 10.5955L74.2673 10.5367V10.8516C74.2673 11.3188 73.8044 11.6752 73.1796 11.6752ZM72.9675 12.3016C73.519 12.3016 73.978 12.087 74.2287 11.7098H74.2943V12.2393H75.0927V9.66462C75.0927 8.86869 74.4987 8.39806 73.4457 8.39806C72.4931 8.39806 71.8142 8.81333 71.7294 9.46045H72.5316C72.6242 9.19399 72.9443 9.04172 73.4072 9.04172C73.9742 9.04172 74.2673 9.26666 74.2673 9.66462V9.98991L73.1295 10.0487C72.1305 10.1041 71.5674 10.4952 71.5674 11.1734C71.5674 11.8621 72.1575 12.3016 72.9675 12.3016Z" fill="white"/>
<path d="M77.9068 12.3016C78.4853 12.3016 78.9752 12.0559 79.2259 11.6441H79.2914V12.2393H80.086V7H79.2567V9.06941H79.195C78.9674 8.65414 78.4815 8.40844 77.9068 8.40844C76.8461 8.40844 76.1634 9.16284 76.1634 10.3533C76.1634 11.5472 76.8384 12.3016 77.9068 12.3016ZM78.142 9.07633C78.8363 9.07633 79.2722 9.57118 79.2722 10.3567C79.2722 11.1457 78.8402 11.6337 78.142 11.6337C77.4401 11.6337 77.0197 11.1527 77.0197 10.3533C77.0197 9.5608 77.4439 9.07633 78.142 9.07633Z" fill="white"/>
<path d="M85.4634 12.3119C86.69 12.3119 87.4421 11.5748 87.4421 10.3533C87.4421 9.13862 86.6861 8.39806 85.4634 8.39806C84.2369 8.39806 83.4809 9.13862 83.4809 10.3533C83.4809 11.5748 84.233 12.3119 85.4634 12.3119ZM85.4634 11.651C84.7422 11.651 84.3372 11.1769 84.3372 10.3533C84.3372 9.53658 84.7422 9.05902 85.4634 9.05902C86.1808 9.05902 86.5897 9.53658 86.5897 10.3533C86.5897 11.1734 86.1808 11.651 85.4634 11.651Z" fill="white"/>
<path d="M88.5398 12.2393H89.3691V10.0349C89.3691 9.44661 89.7586 9.07979 90.3719 9.07979C90.9851 9.07979 91.2783 9.38086 91.2783 9.98645V12.2393H92.1075V9.79958C92.1075 8.9033 91.5907 8.39806 90.6534 8.39806C90.0209 8.39806 89.6043 8.65068 89.3999 9.06941H89.3382V8.47073H88.5398V12.2393Z" fill="white"/>
<path d="M95.9268 7.53292V8.48803H95.2595V9.11439H95.9268V11.2426C95.9268 11.9693 96.2932 12.26 97.215 12.26C97.377 12.26 97.5313 12.2427 97.6663 12.222V11.6025C97.5506 11.6129 97.4773 11.6198 97.35 11.6198C96.9373 11.6198 96.756 11.4468 96.756 11.0523V9.11439H97.6663V8.48803H96.756V7.53292H95.9268Z" fill="white"/>
<path d="M98.7794 12.2393H99.6087V10.0384C99.6087 9.46737 99.9866 9.08325 100.665 9.08325C101.252 9.08325 101.564 9.38778 101.564 9.98991V12.2393H102.393V9.8065C102.393 8.91022 101.842 8.40152 100.947 8.40152C100.314 8.40152 99.8709 8.65414 99.6665 9.07633H99.6009V7H98.7794V12.2393Z" fill="white"/>
<path d="M105.385 9.03134C105.998 9.03134 106.399 9.41546 106.419 10.0072H104.297C104.344 9.41892 104.772 9.03134 105.385 9.03134ZM106.415 11.2219C106.26 11.516 105.917 11.6787 105.416 11.6787C104.752 11.6787 104.324 11.2599 104.297 10.599V10.5574H107.263V10.2979C107.263 9.11439 106.557 8.39806 105.389 8.39806C104.205 8.39806 103.453 9.16284 103.453 10.3671C103.453 11.5714 104.189 12.3119 105.393 12.3119C106.353 12.3119 107.024 11.8967 107.213 11.2219H106.415Z" fill="white"/>
</svg>
