<svg width="900" height="759.329" viewBox="149 220 900 759.329" fill="none" xmlns="http://www.w3.org/2000/svg">
<path d="M409.778 238.659C455.444 223.74 504.022 217.554 552.053 220.647C622.463 224.468 691.236 249.393 748.546 290.329C754.732 294.877 761.464 299.062 766.74 304.884C775.837 315.255 779.475 329.991 776.201 343.455C772.926 358.01 761.464 370.382 747.272 374.748C733.445 379.115 717.617 376.204 706.518 366.925C663.763 333.994 611.729 313.253 558.057 308.159C538.408 305.976 518.395 305.976 498.746 308.159C442.163 313.799 387.4 336.541 343.371 372.747C293.702 413.319 257.496 470.447 243.305 533.034C230.205 589.799 234.208 650.566 255.313 704.965C277.509 762.821 318.809 812.854 370.843 846.331C409.778 871.256 454.717 886.721 500.565 891.087C518.395 893.271 536.589 893.271 554.237 891.269C609.728 886.539 663.399 865.252 707.428 831.23C718.526 822.497 734.355 819.95 747.818 824.498C766.376 830.866 779.657 850.697 777.292 870.347C776.201 881.809 770.197 892.725 761.1 899.639C726.168 926.929 686.505 947.852 644.296 961.315C589.896 978.781 531.312 983.33 474.73 975.507C411.961 966.773 351.558 941.666 300.979 903.459C251.856 866.708 211.83 817.767 185.449 762.276C159.614 707.876 147.06 647.109 149.243 586.888C151.245 512.839 175.806 439.7 219.107 379.478C265.683 313.981 333.182 263.584 409.778 238.659Z" fill="#007CFF"/>
<path d="M942.127 341.999C961.048 336.359 983.245 345.274 992.342 363.104C1036.01 448.433 1055.11 545.951 1047.29 641.469C1041.83 709.513 1023.09 776.648 991.614 837.234C980.152 858.884 949.404 865.798 929.573 851.607C911.197 839.781 905.193 813.4 916.11 794.296C976.877 674.945 977.423 527.03 917.383 407.315C911.925 397.49 909.014 385.846 911.743 374.748C914.836 359.283 927.026 346.184 942.127 341.999Z" fill="#6FBAF7"/>
<path d="M403.956 393.124C481.098 346.548 585.348 347.822 660.307 398.583C678.864 412.228 682.685 441.338 668.312 459.35C655.394 476.998 628.649 482.274 610.274 470.448C581.164 451.89 545.868 443.885 511.663 447.888C477.459 451.526 444.71 467.355 420.695 491.917C396.679 515.75 381.032 547.772 377.211 581.43C373.755 608.721 378.303 636.921 389.583 662.028C404.502 695.141 431.611 722.614 464.723 737.896C498.564 753.907 538.226 756.454 573.886 745.356C621.554 730.801 661.034 691.32 674.68 643.471C640.475 643.653 606.271 643.471 572.067 643.471C555.692 643.471 539.864 633.282 533.132 618.545C524.763 601.625 529.129 579.611 543.321 567.239C550.598 560.689 560.241 556.323 570.065 555.959C621.736 555.595 673.224 555.777 724.894 555.777C741.815 555.231 758.189 565.783 764.921 581.248C770.743 593.256 768.923 606.901 768.196 619.819C763.647 675.856 738.358 729.891 698.331 769.554C659.943 808.124 608.09 833.05 553.873 838.508C500.565 844.33 445.438 831.412 400.136 802.484C354.469 773.556 318.809 728.618 301.343 677.311C283.513 625.459 284.423 567.421 302.981 515.932C321.175 464.99 357.562 420.961 403.956 393.124Z" fill="#002CB8"/>
<path d="M823.868 416.957C842.608 412.044 863.894 421.687 872.627 438.971C919.931 539.037 919.931 660.207 872.627 760.273C866.623 772.099 854.615 780.832 841.334 783.015C825.869 785.744 809.313 779.195 799.67 766.823C789.664 753.905 787.844 735.348 795.122 720.793C830.418 644.197 829.872 552.318 794.212 475.904C783.478 452.434 798.761 422.415 823.868 416.957Z" fill="#6FBAF7"/>
</svg>
