<svg width="130" height="101" viewBox="0 0 130 101" fill="none" xmlns="http://www.w3.org/2000/svg">
<g clip-path="url(#clip0_1844_7553)">
<path d="M126.903 99.2338V99.4908H127.143C127.188 99.4916 127.232 99.4802 127.271 99.4581C127.287 99.447 127.3 99.4322 127.308 99.415C127.316 99.3979 127.32 99.3788 127.319 99.3597C127.32 99.341 127.316 99.3223 127.308 99.3056C127.299 99.2888 127.287 99.2745 127.271 99.264C127.233 99.2407 127.188 99.2293 127.143 99.2312H126.903V99.2338ZM127.145 99.0519C127.248 99.0456 127.35 99.0751 127.433 99.1354C127.467 99.1628 127.493 99.1977 127.511 99.2372C127.528 99.2767 127.536 99.3198 127.534 99.3629C127.536 99.4001 127.529 99.4372 127.515 99.4716C127.501 99.5061 127.48 99.5372 127.453 99.5628C127.389 99.6187 127.308 99.6523 127.223 99.6586L127.544 100.025H127.297L127.001 99.6611H126.906V100.025H126.699V99.0525H127.149L127.145 99.0519ZM127.081 100.36C127.19 100.361 127.297 100.339 127.397 100.296C127.493 100.255 127.58 100.196 127.654 100.122C127.728 100.048 127.787 99.961 127.828 99.8649C127.912 99.6612 127.912 99.4323 127.828 99.2286C127.786 99.1328 127.727 99.0457 127.654 98.9715C127.58 98.8978 127.493 98.8387 127.397 98.7974C127.297 98.7564 127.189 98.7358 127.081 98.737C126.971 98.736 126.862 98.7565 126.76 98.7974C126.662 98.8379 126.572 98.897 126.497 98.9715C126.383 99.0882 126.306 99.2356 126.276 99.3956C126.245 99.5556 126.262 99.721 126.325 99.8713C126.364 99.9677 126.423 100.055 126.497 100.128C126.572 100.203 126.662 100.262 126.76 100.303C126.861 100.346 126.971 100.368 127.081 100.367M127.081 98.503C127.364 98.5028 127.635 98.6136 127.836 98.8115C127.933 98.9066 128.011 99.0199 128.064 99.1451C128.119 99.2736 128.147 99.4118 128.147 99.5516C128.147 99.6913 128.119 99.8296 128.064 99.9581C128.009 100.082 127.932 100.196 127.836 100.292C127.738 100.386 127.623 100.462 127.498 100.517C127.366 100.572 127.224 100.601 127.081 100.6C126.936 100.601 126.793 100.573 126.659 100.517C126.533 100.464 126.417 100.387 126.318 100.292C126.222 100.192 126.146 100.075 126.094 99.9471C126.039 99.8186 126.011 99.6804 126.011 99.5406C126.011 99.4009 126.039 99.2626 126.094 99.1341C126.147 99.009 126.224 98.8957 126.321 98.8006C126.419 98.7033 126.535 98.6267 126.663 98.5757C126.796 98.5195 126.94 98.4911 127.084 98.4921M28.6749 94.7479C28.6749 92.8938 29.8895 91.3707 31.8748 91.3707C33.7719 91.3707 35.0521 92.8282 35.0521 94.7479C35.0521 96.6676 33.7719 98.1251 31.8748 98.1251C29.8895 98.1251 28.6749 96.602 28.6749 94.7479ZM37.2147 94.7479V89.4715H34.921V90.7569C34.1935 89.807 33.0901 89.2113 31.5894 89.2113C28.6331 89.2113 26.3131 91.53 26.3131 94.7505C26.3131 97.9709 28.6318 100.29 31.5894 100.29C33.0894 100.29 34.1935 99.6933 34.921 98.744V100.025H37.2122V94.7479H37.2147ZM114.716 94.7479C114.716 92.8938 115.931 91.3707 117.917 91.3707C119.816 91.3707 121.094 92.8282 121.094 94.7479C121.094 96.6676 119.816 98.1251 117.917 98.1251C115.931 98.1251 114.716 96.602 114.716 94.7479ZM123.258 94.7479V85.2363H120.963V90.7569C120.235 89.807 119.132 89.2113 117.631 89.2113C114.675 89.2113 112.355 91.53 112.355 94.7505C112.355 97.9709 114.674 100.29 117.631 100.29C119.132 100.29 120.235 99.6933 120.963 98.744V100.025H123.258V94.7479ZM65.6826 91.262C67.1608 91.262 68.11 92.1888 68.3523 93.8205H62.8793C63.1241 92.2974 64.0489 91.262 65.6832 91.262M65.7289 89.2055C62.6376 89.2055 60.475 91.4548 60.475 94.7447C60.475 98.0988 62.7244 100.284 65.8825 100.284C67.4712 100.284 68.9262 99.8874 70.2064 98.8057L69.0823 97.1059C68.198 97.8128 67.0721 98.2093 66.0136 98.2093C64.5354 98.2093 63.1897 97.5249 62.8587 95.6258H70.691C70.7135 95.3404 70.7366 95.0525 70.7366 94.744C70.7135 91.4555 68.68 89.2048 65.7276 89.2048M93.4204 94.744C93.4204 92.8899 94.6351 91.3668 96.6203 91.3668C98.5174 91.3668 99.7976 92.8244 99.7976 94.744C99.7976 96.6637 98.5174 98.1213 96.6203 98.1213C94.6351 98.1213 93.4198 96.5982 93.4198 94.744M101.96 94.744V89.4715H99.6672V90.7569C98.9371 89.807 97.8362 89.2113 96.3356 89.2113C93.3793 89.2113 91.0592 91.53 91.0592 94.7505C91.0592 97.9709 93.378 100.29 96.3356 100.29C97.8362 100.29 98.9371 99.6933 99.6672 98.744V100.025H101.96V94.7479L101.96 94.744ZM80.4673 94.744C80.4673 97.9439 82.6948 100.283 86.0946 100.283C87.6833 100.283 88.7417 99.9298 89.8863 99.0255L88.7848 97.1714C87.9236 97.7903 87.0194 98.1213 86.0213 98.1213C84.1903 98.0988 82.8439 96.7749 82.8439 94.744C82.8439 92.7132 84.1903 91.3899 86.0213 91.3668C87.0168 91.3668 87.921 91.6978 88.7848 92.3167L89.8863 90.4626C88.7398 89.5583 87.6813 89.2048 86.0946 89.2048C82.6948 89.2048 80.4673 91.5435 80.4673 94.744ZM110.037 89.2048C108.713 89.2048 107.852 89.8237 107.256 90.7505V89.4715H104.983V100.019H107.279V94.1065C107.279 92.361 108.029 91.3912 109.528 91.3912C110.019 91.3841 110.507 91.4743 110.963 91.6566L111.67 89.4947C111.162 89.2948 110.5 89.2068 110.035 89.2068M48.5547 90.3102C47.4512 89.5827 45.9307 89.2068 44.2533 89.2068C41.5811 89.2068 39.8606 90.4876 39.8606 92.5834C39.8606 94.3032 41.1415 95.3642 43.5001 95.6952L44.5836 95.8494C45.8413 96.0262 46.4352 96.3572 46.4352 96.9529C46.4352 97.7685 45.5997 98.2338 44.0309 98.2338C42.4422 98.2338 41.2957 97.726 40.5226 97.1303L39.4448 98.9188C40.7025 99.8456 42.2912 100.288 44.0117 100.288C47.0579 100.288 48.8233 98.8533 48.8233 96.8449C48.8233 94.9908 47.4339 94.021 45.1383 93.6901L44.0573 93.5332C43.0644 93.4047 42.2687 93.2048 42.2687 92.4979C42.2687 91.7267 43.0187 91.2627 44.2771 91.2627C45.6235 91.2627 46.9268 91.7704 47.5656 92.1669L48.5586 90.3128L48.5547 90.3102ZM78.1505 89.2087C76.8272 89.2087 75.9654 89.8276 75.3722 90.7543V89.4715H73.0991V100.019H75.3928V94.1065C75.3928 92.361 76.1428 91.3912 77.6421 91.3912C78.1331 91.3841 78.6206 91.4743 79.0766 91.6566L79.7835 89.4947C79.2758 89.2948 78.6138 89.2068 78.1492 89.2068M58.5772 89.4715H54.8266V86.2717H52.5078V89.4715H50.3683V91.5679H52.5078V96.3796C52.5078 98.8269 53.4577 100.285 56.171 100.285C57.1665 100.285 58.3131 99.9761 59.0406 99.469L58.378 97.505C57.6935 97.9015 56.9435 98.1014 56.3471 98.1014C55.2006 98.1014 54.8266 97.3944 54.8266 96.3359V91.5699H58.5772V89.4715ZM24.2848 100.022V93.4021C24.2848 90.9092 22.6961 89.2318 20.135 89.2093C18.7886 89.1868 17.3998 89.6059 16.4275 91.0859C15.7 89.9163 14.5534 89.2093 12.9416 89.2093C11.815 89.2093 10.7141 89.5403 9.85227 90.7755V89.4715H7.55664V100.019H9.87027V94.1708C9.87027 92.3398 10.8857 91.3668 12.4538 91.3668C13.9769 91.3668 14.7475 92.3597 14.7475 94.1476V100.018H17.0663V94.1695C17.0663 92.3385 18.1248 91.3655 19.6473 91.3655C21.2135 91.3655 21.9609 92.3584 21.9609 94.1464V100.017L24.2848 100.022Z" fill="#231F20"/>
<path d="M128.211 64.9355V63.3931H127.809L127.345 64.4516L126.883 63.3931H126.48V64.9355H126.765V63.7735L127.199 64.7761H127.495L127.929 63.771V64.9355H128.212H128.211ZM125.663 64.9355V63.6572H126.177V63.3969H124.863V63.6572H125.377V64.9355H125.66H125.663Z" fill="#F79410"/>
<path d="M82.5565 71.5509H47.7969V9.08301H82.5572L82.5565 71.5509Z" fill="#FF5F00"/>
<path d="M50.0006 40.318C50.0006 27.6464 55.9338 16.3585 65.1729 9.0841C58.1794 3.56962 49.5295 0.576728 40.6234 0.589887C18.6845 0.589887 0.900391 18.3765 0.900391 40.318C0.900391 62.2596 18.6845 80.0462 40.6234 80.0462C49.5297 80.0595 58.1798 77.0666 65.1735 71.552C55.9351 64.2788 50.0006 52.9903 50.0006 40.318Z" fill="#EB001B"/>
<path d="M129.452 40.318C129.452 62.2596 111.668 80.0462 89.7291 80.0462C80.8219 80.0593 72.1708 77.0664 65.1758 71.552C74.4174 64.2775 80.3506 52.9903 80.3506 40.318C80.3506 27.6458 74.4174 16.3585 65.1758 9.0841C72.1706 3.56979 80.8215 0.576958 89.7285 0.589885C111.667 0.589885 129.451 18.3765 129.451 40.318" fill="#F79E1B"/>
</g>
<defs>
<clipPath id="clip0_1844_7553">
<rect width="128.535" height="100" fill="white" transform="translate(0.900391 0.589844)"/>
</clipPath>
</defs>
</svg>
