<svg width="308" height="100" viewBox="0 0 308 100" fill="none" xmlns="http://www.w3.org/2000/svg">
<g clip-path="url(#clip0_1844_7551)">
<path d="M200.535 0.12207C178.674 0.12207 159.138 11.453 159.138 32.3877C159.138 56.3957 193.786 58.0538 193.786 70.1148C193.786 75.1931 187.966 79.7392 178.026 79.7392C163.919 79.7392 153.375 73.3871 153.375 73.3871L148.864 94.5126C148.864 94.5126 161.01 99.8782 177.136 99.8782C201.036 99.8782 219.843 87.9907 219.843 66.6985C219.843 41.3295 185.052 39.7205 185.052 28.5261C185.052 24.5474 189.829 20.1886 199.741 20.1886C210.924 20.1886 220.048 24.8084 220.048 24.8084L224.463 4.40499C224.463 4.40499 214.535 0.12207 200.535 0.12207ZM0.52947 1.6621L0 4.74184C0 4.74184 9.19701 6.42486 17.4802 9.78259C28.1454 13.6325 28.9054 15.874 30.7016 22.8354L50.2747 98.2901H76.5134L116.936 1.6621H90.7573L64.7837 67.3599L54.185 11.6712C53.213 5.29781 48.2894 1.6621 42.2627 1.6621H0.52947ZM127.462 1.6621L106.926 98.2898H131.889L152.353 1.66179H127.462V1.6621ZM266.69 1.6621C260.67 1.6621 257.481 4.88484 255.141 10.5164L218.568 98.2898H244.746L249.811 83.6607H281.703L284.784 98.2898H307.882L287.731 1.6621H266.69ZM270.094 27.7679L277.854 64.0274H257.065L270.094 27.7679Z" fill="#1434CB"/>
</g>
<defs>
<clipPath id="clip0_1844_7551">
<rect width="307.882" height="100" fill="white"/>
</clipPath>
</defs>
</svg>
